<svg xmlns="http://www.w3.org/2000/svg" width="32" height="32" xmlns:xlink="http://www.w3.org/1999/xlink"><defs><linearGradient id="c" x1="50%" x2="50%" y1="0%" y2="100%"><stop offset="0%" stop-color="#FFF" stop-opacity=".5"/><stop offset="100%" stop-opacity=".5"/></linearGradient><circle id="b" cx="16" cy="15" r="15"/><filter id="a" width="111.7%" height="111.7%" x="-5.8%" y="-4.2%" filterUnits="objectBoundingBox"><feOffset dy=".5" in="SourceAlpha" result="shadowOffsetOuter1"/><feGaussianBlur in="shadowOffsetOuter1" result="shadowBlurOuter1" stdDeviation=".5"/><feComposite in="shadowBlurOuter1" in2="SourceAlpha" operator="out" result="shadowBlurOuter1"/><feColorMatrix in="shadowBlurOuter1" values="0 0 0 0 0 0 0 0 0 0 0 0 0 0 0 0 0 0 0.199473505 0"/></filter><path id="e" d="M23.2 13.02c.3-2.1-1.3-3.22-3.48-3.97l.7-2.84-1.72-.42-.7 2.77c-.44-.1-.9-.22-1.37-.33l.7-2.77L15.6 5l-.7 2.84c-.4-.1-.76-.17-1.12-.26l-2.38-.6-.46 1.84s1.28.3 1.26.3c.7.2.82.65.8 1.02l-.8 3.23c.04.02.1.03.18.06-.06 0-.12-.03-.2-.04l-1.12 4.5c-.08.2-.3.54-.8.4C10.3 18.35 9 18 9 18L8.18 20l2.25.55c.42.1.83.22 1.24.32l-.72 2.87 1.73.43.7-2.84c.48.14.94.26 1.4.37l-.72 2.82 1.73.42.7-2.87c2.96.56 5.18.34 6.1-2.33.76-2.15-.03-3.38-1.58-4.2 1.13-.25 1.98-1 2.2-2.53zm-3.96 5.54c-.53 2.14-4.15.98-5.32.7l.95-3.8c1.17.28 4.93.86 4.37 3.1zm.53-5.57c-.48 1.93-3.5.94-4.47.7l.86-3.45c.98.24 4.12.7 3.6 2.73z"/><filter id="d" width="123.2%" height="117.5%" x="-11.6%" y="-6.3%" filterUnits="objectBoundingBox"><feOffset dy=".5" in="SourceAlpha" result="shadowOffsetOuter1"/><feGaussianBlur in="shadowOffsetOuter1" result="shadowBlurOuter1" stdDeviation=".5"/><feColorMatrix in="shadowBlurOuter1" values="0 0 0 0 0 0 0 0 0 0 0 0 0 0 0 0 0 0 0.204257246 0"/></filter></defs><g fill="none"><use fill="#000" filter="url(#a)" xlink:href="#b"/><use fill="#F7931A" xlink:href="#b"/><use fill="url(#c)" style="mix-blend-mode:soft-light" xlink:href="#b"/><circle cx="16" cy="15" r="14.5" stroke="#000" stroke-opacity=".097"/><use fill="#000" filter="url(#d)" xlink:href="#e"/><use fill="#FFF" fill-rule="evenodd" xlink:href="#e"/></g></svg>