<svg xmlns="http://www.w3.org/2000/svg" width="32" height="32" xmlns:xlink="http://www.w3.org/1999/xlink"><defs><linearGradient id="c" x1="50%" x2="50%" y1="0%" y2="100%"><stop offset="0%" stop-color="#FFF" stop-opacity=".5"/><stop offset="100%" stop-opacity=".5"/></linearGradient><circle id="b" cx="16" cy="15" r="15"/><filter id="a" width="111.7%" height="111.7%" x="-5.8%" y="-4.2%" filterUnits="objectBoundingBox"><feOffset dy=".5" in="SourceAlpha" result="shadowOffsetOuter1"/><feGaussianBlur in="shadowOffsetOuter1" result="shadowBlurOuter1" stdDeviation=".5"/><feComposite in="shadowBlurOuter1" in2="SourceAlpha" operator="out" result="shadowBlurOuter1"/><feColorMatrix in="shadowBlurOuter1" values="0 0 0 0 0 0 0 0 0 0 0 0 0 0 0 0 0 0 0.199473505 0"/></filter><path id="e" d="M21.2 9.53c.58 1.45.2 2.52-.64 3.3 1.75-.07 3.05.6 3.48 2.84.52 2.78-1.3 4.08-4.12 5.07l.82 2.84-1.72.5-.8-2.8c-.44.12-.9.24-1.37.37l.8 2.8-1.7.5-.82-2.84c-.4.13-.8.24-1.23.36l-2.22.64-.25-2.15s1.27-.35 1.24-.36c.5-.16.52-.54.48-.77l-1.28-4.5c.06 0 .12-.03.18-.04-.07 0-.14 0-.2.03l-.9-3.2c-.17-.34-.5-.68-1.2-.48 0-.03-1.25.36-1.25.36l-.52-1.82 2.36-.68c.36-.1.72-.2 1.1-.32l-.82-2.82 1.7-.5.8 2.77c.46-.14.92-.28 1.37-.4l-.8-2.75 1.7-.5.8 2.82c2.28-.44 4.2-.26 5 1.7zm-.64 6.77c-.64-2.2-4.18-.84-5.34-.5l1.08 3.77c1.16-.34 4.87-1.14 4.26-3.27zm-2.33-5.1c-.57-2-3.52-.83-4.5-.55l1 3.42c.96-.28 4.06-.92 3.5-2.86z"/><filter id="d" width="121.7%" height="117.5%" x="-10.8%" y="-6.3%" filterUnits="objectBoundingBox"><feOffset dy=".5" in="SourceAlpha" result="shadowOffsetOuter1"/><feGaussianBlur in="shadowOffsetOuter1" result="shadowBlurOuter1" stdDeviation=".5"/><feColorMatrix in="shadowBlurOuter1" values="0 0 0 0 0 0 0 0 0 0 0 0 0 0 0 0 0 0 0.204257246 0"/></filter></defs><g fill="none"><use fill="#000" filter="url(#a)" xlink:href="#b"/><use fill="#8DC351" xlink:href="#b"/><use fill="url(#c)" style="mix-blend-mode:soft-light" xlink:href="#b"/><circle cx="16" cy="15" r="14.5" stroke="#000" stroke-opacity=".097"/><use fill="#000" filter="url(#d)" xlink:href="#e"/><use fill="#FFF" fill-rule="evenodd" xlink:href="#e"/></g></svg>