<svg xmlns="http://www.w3.org/2000/svg" width="32" height="32" xmlns:xlink="http://www.w3.org/1999/xlink"><defs><linearGradient id="c" x1="50%" x2="50%" y1="0%" y2="100%"><stop offset="0%" stop-color="#FFF" stop-opacity=".5"/><stop offset="100%" stop-opacity=".5"/></linearGradient><circle id="b" cx="16" cy="15" r="15"/><filter id="a" width="111.7%" height="111.7%" x="-5.8%" y="-4.2%" filterUnits="objectBoundingBox"><feOffset dy=".5" in="SourceAlpha" result="shadowOffsetOuter1"/><feGaussianBlur in="shadowOffsetOuter1" result="shadowBlurOuter1" stdDeviation=".5"/><feComposite in="shadowBlurOuter1" in2="SourceAlpha" operator="out" result="shadowBlurOuter1"/><feColorMatrix in="shadowBlurOuter1" values="0 0 0 0 0 0 0 0 0 0 0 0 0 0 0 0 0 0 0.199473505 0"/></filter><path id="e" d="M15.72 5.06c.48-.25 1.07.32.8.8-.13.38-.7.48-.98.2-.3-.3-.2-.85.18-1zm-5.15.55c.3-.1.66.16.63.47.03.34-.4.6-.7.43-.38-.16-.34-.8.07-.9zm10.56.9c-.46-.04-.53-.75-.1-.9.35-.15.66.15.7.47-.06.27-.3.52-.6.44zm-9.4 1.27c.5-.3 1.2.15 1.12.7-.03.57-.78.9-1.2.52-.43-.3-.36-1 .1-1.23zm7.44.33c.22-.56 1.1-.58 1.35-.05.24.42-.06.94-.5 1.08-.57.1-1.12-.5-.85-1.04zm-4.07 1c0-.47.44-.83.9-.86.3.06.63.2.76.5.24.4.03.98-.4 1.17-.2.13-.45.08-.67.07-.35-.16-.63-.47-.6-.86zm-7.66.7c.44-.28 1.04.2.87.7-.07.4-.63.56-.95.3-.34-.24-.3-.84.1-1zm16.46 0c.38-.3 1 .03.95.5.03.43-.5.75-.88.53-.42-.18-.46-.8-.07-1.04zm-6.64.84c.62-.22 1.36.04 1.72.6.46.65.22 1.67-.5 2.05-.76.44-1.86.05-2.14-.77-.32-.74.14-1.67.92-1.9zm-3.65.07c.7-.3 1.64-.03 1.97.66.4.68.1 1.62-.6 1.97-.72.4-1.7.1-2.05-.63-.37-.7-.03-1.67.7-2zm-3.64 1.25c.05-.44.47-.72.9-.75.45.04.82.4.86.85-.02.45-.37.88-.85.88-.53.05-1-.47-.9-1zm10.8-.66c.55-.3 1.3.14 1.28.76.04.65-.8 1.1-1.34.73-.58-.33-.53-1.23.05-1.5zm-8.63 2.3c.64-.17 1.37.13 1.68.7.36.6.2 1.4-.32 1.82-.68.64-1.94.4-2.3-.47-.42-.78.08-1.83.95-2.04zm6.93 0c.62-.18 1.35.06 1.68.62.45.64.24 1.6-.42 2-.68.48-1.75.23-2.13-.5-.47-.8 0-1.88.87-2.1zM8 14.32c.56-.2 1.17.4.95.93-.14.5-.84.67-1.2.3-.43-.33-.27-1.1.26-1.23zm15 .77c-.02-.45.32-.85.8-.88.36.06.73.36.7.77.04.5-.62.9-1.08.62-.22-.1-.33-.32-.42-.53zm-17.7-.52c.35-.14.76.14.68.5-.02.4-.63.57-.86.23-.2-.22-.08-.6.2-.7zm20.96 0c.24-.17.6-.05.7.2.16.3-.13.7-.46.66-.47.04-.63-.66-.24-.87zm-12.3 1.96c.86-.22 1.8.5 1.8 1.38.06.9-.86 1.7-1.76 1.5-.7-.12-1.23-.78-1.2-1.47 0-.66.5-1.27 1.15-1.4zm3.45 0c.9-.24 1.85.5 1.84 1.4.05.87-.85 1.64-1.73 1.47-.8-.1-1.42-1-1.2-1.77.13-.52.57-.95 1.1-1.08zm-6.7.55c.64-.13 1.2.55.96 1.12-.18.6-1.08.78-1.48.28-.47-.47-.12-1.35.54-1.4zm10.18 0c.54-.2 1.22.25 1.17.83.03.64-.8 1.1-1.34.7-.6-.33-.5-1.32.18-1.53zm2.83 2.8c-.2-.4.2-.9.63-.84.22 0 .38.17.52.32.03.22.08.5-.12.68-.27.33-.87.23-1.02-.16zm-16.25-.73c.4-.27 1 .14.9.6-.04.44-.58.68-.93.44-.37-.2-.36-.83.04-1.03zm8.2.9c.53-.25 1.22.22 1.17.8.05.65-.8 1.1-1.33.7-.6-.32-.5-1.3.15-1.5zm-3.8.86c.46-.24 1.08.17 1.04.68 0 .43-.4.78-.83.7-.35 0-.58-.3-.7-.6.02-.3.15-.65.47-.77zm7.68 0c.48-.28 1.15.13 1.1.68.02.57-.74.94-1.2.57-.42-.3-.36-1 .1-1.24zm1.34 3.26c-.2-.33.04-.7.38-.78.28.06.57.26.5.57-.03.42-.66.55-.88.2zm-10.6-.3c.07-.24.28-.5.57-.42.44.02.57.67.2.86-.36.23-.75-.08-.78-.44zm5.1.3c.1-.37.58-.55.9-.35.2.1.27.32.32.52-.04.1-.06.2-.1.3-.12.16-.3.3-.5.3-.4.05-.78-.4-.6-.77z"/><filter id="d" width="115.9%" height="117.5%" x="-8%" y="-6.3%" filterUnits="objectBoundingBox"><feOffset dy=".5" in="SourceAlpha" result="shadowOffsetOuter1"/><feGaussianBlur in="shadowOffsetOuter1" result="shadowBlurOuter1" stdDeviation=".5"/><feColorMatrix in="shadowBlurOuter1" values="0 0 0 0 0 0 0 0 0 0 0 0 0 0 0 0 0 0 0.204257246 0"/></filter></defs><g fill="none"><use fill="#000" filter="url(#a)" xlink:href="#b"/><use fill="#3CC8C8" xlink:href="#b"/><use fill="url(#c)" style="mix-blend-mode:soft-light" xlink:href="#b"/><circle cx="16" cy="15" r="14.5" stroke="#000" stroke-opacity=".097"/><use fill="#000" filter="url(#d)" xlink:href="#e"/><use fill="#FFF" fill-rule="evenodd" xlink:href="#e"/></g></svg>