<svg xmlns="http://www.w3.org/2000/svg" width="32" height="32" xmlns:xlink="http://www.w3.org/1999/xlink"><defs><linearGradient id="c" x1="50%" x2="50%" y1="0%" y2="100%"><stop offset="0%" stop-color="#FFF" stop-opacity=".5"/><stop offset="100%" stop-opacity=".5"/></linearGradient><circle id="b" cx="16" cy="15" r="15"/><filter id="a" width="111.7%" height="111.7%" x="-5.8%" y="-4.2%" filterUnits="objectBoundingBox"><feOffset dy=".5" in="SourceAlpha" result="shadowOffsetOuter1"/><feGaussianBlur in="shadowOffsetOuter1" result="shadowBlurOuter1" stdDeviation=".5"/><feComposite in="shadowBlurOuter1" in2="SourceAlpha" operator="out" result="shadowBlurOuter1"/><feColorMatrix in="shadowBlurOuter1" values="0 0 0 0 0 0 0 0 0 0 0 0 0 0 0 0 0 0 0.199473505 0"/></filter></defs><g fill="none"><use fill="#000" filter="url(#a)" xlink:href="#b"/><use fill="#282828" fill-rule="evenodd" xlink:href="#b"/><use fill="url(#c)" fill-rule="evenodd" style="mix-blend-mode:soft-light" xlink:href="#b"/><circle cx="16" cy="15" r="14.5" stroke="#000" stroke-opacity=".097"/><path fill="#FFF" d="M9.18 19.9l2.77-4.88-1-3.18-1.77 8.07zm3.04-4.05L8.96 21.6h5.1l-1.84-5.75zm-2.7 6.38l5.9 3.7-1.17-3.7H9.53zm2.86-7.97l3.3-5.82V4.6l-4.44 6.07 1.14 3.6zm-1.8-3.7c0-.06.02-.1.05-.14l5.1-7c.08-.08.18-.12.27-.12.1 0 .2.04.27.13l5.1 7c.04.03.05.07.06.12l2.47 11.28c.04.14-.03.3-.15.36l-7.57 4.73c-.06.03-.12.05-.18.05-.05 0-.1-.03-.17-.06L8.26 22.2c-.13-.08-.2-.23-.16-.37l2.47-11.28zM16 25.6l1.08-3.4h-2.16L16 25.6zm.58.3l5.9-3.7h-4.72l-1.18 3.7zm4.48-14.08l-1 3.18 2.77 4.9-1.77-8.08zm-.3-1.17L16.34 4.6v3.84l3.3 5.82 1.14-3.6zm2.3 10.92l-3.27-5.75-1.85 5.74h5.1zM16 9.17l-3.35 5.9 2.07 6.5h2.57l2.05-6.5L16 9.18zm7.32 12.9l.27-.5h-.56l.27.48zm-14.9-.5l.27.48.25-.48H8.4z"/></g></svg>