<svg xmlns="http://www.w3.org/2000/svg" width="32" height="32"><rect width="100%" height="100%" fill="none"/><g class="currentLayer"><title>Layer 1</title><path fill="#484848" d="M0 16C0 7.17 7.23 0 16.15 0 25.07 0 32.3 7.16 32.3 16c0 8.85-7.23 16-16.15 16C7.23 32 0 24.86 0 16z"/><g fill="#fff"><path d="M23.3 7.14h3.1l-6.42 6.05c-2.32 2.17-6.08 2.17-8.4 0L5.15 7.12h3.08l4.87 4.6c1.5 1.38 3.87 1.38 5.34 0l4.87-4.6zM8.2 23.97H5.12l6.45-6.1c2.33-2.18 6.1-2.18 8.4 0l6.46 6.1h-3.08l-4.9-4.63c-1.48-1.4-3.86-1.4-5.33 0L8.2 23.97z"/></g></g></svg>