<svg xmlns="http://www.w3.org/2000/svg" width="32" height="32" xmlns:xlink="http://www.w3.org/1999/xlink"><defs><linearGradient id="c" x1="50%" x2="50%" y1="0%" y2="100%"><stop offset="0%" stop-color="#FFF" stop-opacity=".5"/><stop offset="100%" stop-opacity=".5"/></linearGradient><circle id="b" cx="16" cy="15" r="15"/><filter id="a" width="111.7%" height="111.7%" x="-5.8%" y="-4.2%" filterUnits="objectBoundingBox"><feOffset dy=".5" in="SourceAlpha" result="shadowOffsetOuter1"/><feGaussianBlur in="shadowOffsetOuter1" result="shadowBlurOuter1" stdDeviation=".5"/><feComposite in="shadowBlurOuter1" in2="SourceAlpha" operator="out" result="shadowBlurOuter1"/><feColorMatrix in="shadowBlurOuter1" values="0 0 0 0 0 0 0 0 0 0 0 0 0 0 0 0 0 0 0.199473505 0"/></filter><path id="e" d="M12.78 12.53c.63-1.13 1.35-2.4 2.1-3.66 2.1-3.53 7.73-3.9 8.04-3.68.3.2 1.86 5.73-.7 8.94-.9 1.15-1.8 2.27-2.63 3.25.9 1.45 1.55 3.92-.64 7.4-.1.16-.3.3-.32-.05-.03-.82-.32-2.47-1.9-4-.04.03-.07.07-.1.1-.5.6-.9.5-1.56.03-.02-.02-.04-.03-.06-.05-.08.3-.2.56-.38.82-.02.03-.04.06-.06.08-1.48 2.1-3.57 3.1-4.7 2.3-1.14-.83-.9-3.2.5-5.32.03-.02.05-.05.07-.1.17-.23.38-.44.62-.6-.68-.48-.9-.84-.5-1.5 0-.04.02-.07.04-.1-1.94-.96-3.56-.67-4.34-.43-.34.1-.28-.13-.16-.3 2.47-3.2 4.95-3.5 6.64-3.15zm-1.05 5.94c-.1.1-.17.2-.25.3-.02 0-.03.03-.04.05-1 1.47-1.17 3.1-.38 3.64.8.56 2.25-.15 3.3-1.58 0-.02.03-.04.04-.06.07-.1.13-.2.17-.3-.4-.3-.94-.68-1.48-1.07-.5-.35-1-.7-1.38-.98zm4.94-8.77c-.73 1.05-.48 2.5.54 3.22 1.05.74 2.47.5 3.2-.56.7-1.04.46-2.48-.56-3.2-1.03-.75-2.44-.5-3.16.54z"/><filter id="d" width="119.9%" height="117.6%" x="-9.9%" y="-6.3%" filterUnits="objectBoundingBox"><feOffset dy=".5" in="SourceAlpha" result="shadowOffsetOuter1"/><feGaussianBlur in="shadowOffsetOuter1" result="shadowBlurOuter1" stdDeviation=".5"/><feColorMatrix in="shadowBlurOuter1" values="0 0 0 0 0 0 0 0 0 0 0 0 0 0 0 0 0 0 0.204257246 0"/></filter></defs><g fill="none"><use fill="#000" filter="url(#a)" xlink:href="#b"/><use fill="#14B6E7" xlink:href="#b"/><use fill="url(#c)" style="mix-blend-mode:soft-light" xlink:href="#b"/><circle cx="16" cy="15" r="14.5" stroke="#000" stroke-opacity=".097"/><use fill="#000" filter="url(#d)" xlink:href="#e"/><use fill="#FFF" xlink:href="#e"/></g></svg>