<svg xmlns="http://www.w3.org/2000/svg" width="32" height="32" xmlns:xlink="http://www.w3.org/1999/xlink"><defs><linearGradient id="c" x1="50%" x2="50%" y1="0%" y2="100%"><stop offset="0%" stop-color="#FFF" stop-opacity=".5"/><stop offset="100%" stop-opacity=".5"/></linearGradient><circle id="b" cx="16" cy="15" r="15"/><filter id="a" width="111.7%" height="111.7%" x="-5.8%" y="-4.2%" filterUnits="objectBoundingBox"><feOffset dy=".5" in="SourceAlpha" result="shadowOffsetOuter1"/><feGaussianBlur in="shadowOffsetOuter1" result="shadowBlurOuter1" stdDeviation=".5"/><feComposite in="shadowBlurOuter1" in2="SourceAlpha" operator="out" result="shadowBlurOuter1"/><feColorMatrix in="shadowBlurOuter1" values="0 0 0 0 0 0 0 0 0 0 0 0 0 0 0 0 0 0 0.199473505 0"/></filter><path id="e" d="M17.92 16.38c-.1 0-.68.04-1.94.04-1 0-1.72-.03-1.97-.04-3.87-.17-6.77-.84-6.77-1.65 0-.8 2.9-1.5 6.8-1.66v2.64c.24.04.97.08 1.98.08 1.2 0 1.8-.05 1.93-.06V13.1c3.88.16 6.78.84 6.78 1.65 0 .8-2.9 1.48-6.77 1.65m0-3.6v-2.35h5.42v-3.6H8.6v3.6H14v2.36c-4.4.2-7.7 1.08-7.7 2.1 0 1.06 3.3 1.93 7.7 2.14v7.58h3.92v-7.57c4.4-.2 7.7-1.08 7.7-2.12 0-1.03-3.3-1.9-7.7-2.1"/><filter id="d" width="118.1%" height="119.7%" x="-9.1%" y="-7%" filterUnits="objectBoundingBox"><feOffset dy=".5" in="SourceAlpha" result="shadowOffsetOuter1"/><feGaussianBlur in="shadowOffsetOuter1" result="shadowBlurOuter1" stdDeviation=".5"/><feColorMatrix in="shadowBlurOuter1" values="0 0 0 0 0 0 0 0 0 0 0 0 0 0 0 0 0 0 0.204257246 0"/></filter></defs><g fill="none"><use fill="#000" filter="url(#a)" xlink:href="#b"/><use fill="#26A17B" xlink:href="#b"/><use fill="url(#c)" style="mix-blend-mode:soft-light" xlink:href="#b"/><circle cx="16" cy="15" r="14.5" stroke="#000" stroke-opacity=".097"/><use fill="#000" filter="url(#d)" xlink:href="#e"/><use fill="#FFF" xlink:href="#e"/></g></svg>