<svg xmlns="http://www.w3.org/2000/svg" width="32" height="32" xmlns:xlink="http://www.w3.org/1999/xlink"><defs><linearGradient id="c" x1="50%" x2="50%" y1="0%" y2="100%"><stop offset="0%" stop-color="#FFF" stop-opacity=".5"/><stop offset="100%" stop-opacity=".5"/></linearGradient><circle id="b" cx="16" cy="15" r="15"/><filter id="a" width="111.7%" height="111.7%" x="-5.8%" y="-4.2%" filterUnits="objectBoundingBox"><feOffset dy=".5" in="SourceAlpha" result="shadowOffsetOuter1"/><feGaussianBlur in="shadowOffsetOuter1" result="shadowBlurOuter1" stdDeviation=".5"/><feComposite in="shadowBlurOuter1" in2="SourceAlpha" operator="out" result="shadowBlurOuter1"/><feColorMatrix in="shadowBlurOuter1" values="0 0 0 0 0 0 0 0 0 0 0 0 0 0 0 0 0 0 0.199473505 0"/></filter><path id="e" d="M24.75 11.27c-.8-.57-1.66-1.18-2.5-1.78 0-.03-.03-.04-.06-.06-.1-.07-.2-.14-.34-.2-2.25-.54-4.52-1.1-6.72-1.64-2-.5-4-.98-6-1.47-.04 0-.1-.03-.14-.04-.17-.07-.38-.13-.6-.1-.07 0-.12.03-.17.06l-.06.05c-.1.1-.13.2-.16.26v.3c1.28 3.6 2.57 7.23 3.8 10.75.98 2.7 1.98 5.53 2.96 8.28.06.2.23.3.44.33h.04c.2 0 .37-.1.46-.25l3.66-5.4c.9-1.33 1.78-2.65 2.67-3.97.37-.53.73-1.08 1.1-1.62.6-.9 1.22-1.8 1.83-2.7L25 12v-.05c0-.17 0-.5-.25-.68m-4.3 1.97c-.85.45-1.73.92-2.6 1.4.5-.57 1.02-1.13 1.53-1.7.64-.7 1.3-1.42 1.97-2.13.07-.07.14-.14.2-.22.06-.05.12-.1.17-.16.34.25.7.5 1.02.73.24.17.5.35.73.52-1 .52-2.03 1.06-3 1.6M18.24 13c-.66.74-1.35 1.5-2.03 2.22-1.3-1.62-2.65-3.27-3.95-4.85-.6-.73-1.2-1.45-1.78-2.17-.14-.16-.27-.33-.4-.5-.08-.1-.17-.2-.25-.3.53.13 1.07.26 1.6.4.47.1.96.22 1.43.34 2.68.66 5.37 1.32 8.05 1.98-.9.97-1.78 1.95-2.65 2.9m-2.33 9.13c.06-.5.1-1 .16-1.5.04-.4.08-.8.12-1.2.07-.62.14-1.26.2-1.9v-.1c.05-.4.1-.83.13-1.24.05 0 .1-.04.16-.06.05-.04.12-.07.2-.1 1.06-.57 2.12-1.14 3.2-1.7 1.06-.57 2.16-1.15 3.24-1.72-.98 1.46-1.98 2.93-2.94 4.36-.82 1.22-1.67 2.48-2.5 3.72-.34.5-.7 1-1.02 1.5-.37.53-.75 1.1-1.12 1.65.05-.56.1-1.13.16-1.68M9.48 8.5c-.06-.17-.12-.35-.18-.5 1.25 1.52 2.5 3.05 3.73 4.55.63.77 1.27 1.54 1.9 2.3.13.16.25.3.37.46.16.2.3.4.5.6-.07.5-.12.98-.17 1.45-.03.33-.06.66-.1 1 0 .2-.04.4-.06.62-.04.3-.1.93-.1.93v.03c-.1.94-.2 1.9-.3 2.83-.04.38-.07.77-.12 1.17-.02-.07-.05-.14-.07-.2-.07-.2-.14-.4-.2-.58l-.5-1.4c-1.56-4.42-3.13-8.83-4.7-13.25"/><filter id="d" width="120.6%" height="117.5%" x="-10.3%" y="-6.2%" filterUnits="objectBoundingBox"><feOffset dy=".5" in="SourceAlpha" result="shadowOffsetOuter1"/><feGaussianBlur in="shadowOffsetOuter1" result="shadowBlurOuter1" stdDeviation=".5"/><feColorMatrix in="shadowBlurOuter1" values="0 0 0 0 0 0 0 0 0 0 0 0 0 0 0 0 0 0 0.204257246 0"/></filter></defs><g fill="none"><use fill="#000" filter="url(#a)" xlink:href="#b"/><use fill="#2A2A2A" fill-rule="evenodd" xlink:href="#b"/><use fill="url(#c)" fill-rule="evenodd" style="mix-blend-mode:soft-light" xlink:href="#b"/><circle cx="16" cy="15" r="14.5" stroke="#000" stroke-opacity=".097"/><use fill="#000" filter="url(#d)" xlink:href="#e"/><use fill="#FFF" fill-rule="evenodd" xlink:href="#e"/></g></svg>